<?xml version="1.0" encoding="UTF-8"?>
<svg width="14px" height="19px" viewBox="0 0 14 19" version="1.1" xmlns="http://www.w3.org/2000/svg" xmlns:xlink="http://www.w3.org/1999/xlink">
    <!-- Generator: sketchtool 39 (31667) - http://www.bohemiancoding.com/sketch -->
    <title>36EF363C-2483-4C9B-A329-021B96B5150B</title>
    <desc>Created with sketchtool.</desc>
    <defs></defs>
    <g id="Page-1" stroke="none" stroke-width="1" fill="none" fill-rule="evenodd">
        <g id="1280-Cool-screens" transform="translate(-830.000000, -3864.000000)" fill="#000000">
            <path d="M840.410737,3871.88192 C841.008254,3870.29858 841.474585,3868.99144 841.809121,3867.96052 C842.143657,3866.9296 842.310959,3866.29669 842.310959,3866.06184 C842.310959,3865.80954 842.255192,3865.61381 842.143657,3865.47458 C842.031987,3865.33555 841.878102,3865.26583 841.682001,3865.26583 C841.432234,3865.26583 841.177927,3865.46811 840.919283,3865.87258 C840.660368,3866.27713 840.375095,3866.92762 840.062852,3867.82354 L838.724707,3871.59481 L840.410737,3871.88192 L840.410737,3871.88192 Z M838.630993,3875.39224 C838.247398,3875.37486 837.883725,3875.33574 837.540447,3875.27482 C837.196967,3875.21409 836.869139,3875.12693 836.556896,3875.01387 C836.699465,3875.29239 836.826585,3875.57059 836.938255,3875.84899 C837.04979,3876.12758 837.141064,3876.40162 837.212619,3876.67109 C837.426677,3876.41014 837.651982,3876.17325 837.8884,3875.95994 C838.124615,3875.74676 838.372146,3875.55758 838.630993,3875.39224 L838.630993,3875.39224 Z M837.118906,3871.43826 L835.673699,3867.36679 C835.299048,3866.33151 835.009099,3865.65531 834.803986,3865.3376 C834.598535,3865.02002 834.375736,3864.86129 834.134846,3864.86129 C833.947554,3864.86129 833.795702,3864.93107 833.679898,3865.07004 C833.563891,3865.20927 833.505956,3865.39628 833.505956,3865.63119 C833.505956,3866.03137 833.661874,3866.7274 833.97432,3867.71913 C834.286495,3868.71086 834.754859,3870.01146 835.379345,3871.62091 C835.432876,3871.52522 835.508497,3871.45782 835.606819,3871.41864 C835.704937,3871.37952 835.838765,3871.35996 836.008235,3871.35996 C836.061766,3871.35996 836.168829,3871.36445 836.329422,3871.37297 C836.489948,3871.3817 836.752996,3871.40364 837.118906,3871.43826 L837.118906,3871.43826 Z M835.807527,3877.7412 C835.959176,3877.7412 836.097273,3877.67393 836.22236,3877.53893 C836.347243,3877.40406 836.409719,3877.25835 836.409719,3877.10174 C836.409719,3876.9366 836.287004,3876.55169 836.041709,3875.94685 C835.796211,3875.34222 835.490812,3874.74849 835.125105,3874.16559 C834.857449,3873.73059 834.594266,3873.40223 834.335622,3873.18034 C834.076707,3872.95851 833.831547,3872.84756 833.599601,3872.84756 C833.412242,3872.84756 833.204826,3872.96306 832.977352,3873.19342 C832.749878,3873.42397 832.636107,3873.63926 832.636107,3873.83936 C832.636107,3874.04817 832.747642,3874.36139 832.970644,3874.77895 C833.19351,3875.19651 833.492539,3875.64024 833.867257,3876.11001 C834.259797,3876.62345 834.629976,3877.02343 834.977929,3877.31055 C835.325814,3877.59761 835.602143,3877.7412 835.807527,3877.7412 L835.807527,3877.7412 Z M831.793092,3877.42798 C831.917976,3877.57606 832.091986,3877.7934 832.314988,3878.08045 C832.903763,3878.87216 833.447749,3879.26798 833.947554,3879.26798 C834.116821,3879.26798 834.268674,3879.21578 834.402502,3879.11137 C834.536262,3879.00697 834.60321,3878.89826 834.60321,3878.78513 C834.60321,3878.65469 834.513969,3878.43735 834.335622,3878.13266 C834.156936,3877.82816 833.911844,3877.48474 833.599601,3877.10174 C833.242772,3876.65808 832.945979,3876.33402 832.709764,3876.12957 C832.473345,3875.92531 832.283614,3875.82289 832.141045,3875.82289 C831.828599,3875.82289 831.540886,3875.98604 831.277905,3876.31228 C831.014789,3876.63852 830.883197,3877.02343 830.883197,3877.4671 C830.883197,3877.824 830.974607,3878.222 831.157494,3878.66117 C831.340178,3879.10047 831.605733,3879.54202 831.953686,3879.98568 C832.480054,3880.67298 833.13327,3881.20129 833.91408,3881.57108 C834.69462,3881.94113 835.55776,3882.12563 836.503365,3882.12563 C838.242994,3882.12563 839.699314,3881.49277 840.872393,3880.22714 C842.045336,3878.9613 842.632079,3877.37584 842.632079,3875.47055 C842.632079,3874.88785 842.587289,3874.42463 842.498251,3874.08081 C842.409077,3873.73713 842.2619,3873.48702 842.056652,3873.3304 C841.690743,3873.03483 840.979523,3872.76932 839.922315,3872.5344 C838.865243,3872.29955 837.761213,3872.18206 836.610427,3872.18206 C836.289308,3872.18206 836.061766,3872.23427 835.928006,3872.33867 C835.794178,3872.44308 835.72723,3872.62143 835.72723,3872.87366 C835.72723,3873.46547 836.066238,3873.89374 836.744255,3874.15905 C837.422069,3874.42463 838.519323,3874.55712 840.036086,3874.55712 L840.584747,3874.55712 C840.709631,3874.55712 840.809985,3874.60278 840.885809,3874.6941 C840.961431,3874.78543 841.012929,3874.92248 841.039695,3875.10519 C840.887842,3875.24435 840.575803,3875.40334 840.102966,3875.5815 C839.629994,3875.75978 839.268692,3875.93595 839.019129,3876.11001 C838.483816,3876.49294 838.053398,3876.94738 837.727807,3877.47364 C837.401944,3878.00017 837.239385,3878.49808 837.239385,3878.96785 C837.239385,3879.25497 837.308298,3879.60076 837.446802,3880.00524 C837.585034,3880.40985 837.65415,3880.6599 837.65415,3880.75565 L837.65415,3880.84697 L837.627385,3880.9644 C837.23471,3880.93829 836.924906,3880.71448 836.697432,3880.29236 C836.469959,3879.87044 836.356188,3879.30717 836.356188,3878.60242 L836.356188,3878.485 C836.284632,3878.54592 836.215651,3878.5894 836.148771,3878.61551 C836.081891,3878.64161 836.008235,3878.65469 835.928006,3878.65469 C835.847641,3878.65469 835.771817,3878.64815 835.700464,3878.63507 C835.628909,3878.62205 835.54868,3878.60242 835.459642,3878.57632 C835.486407,3878.6722 835.506465,3878.76557 835.519813,3878.8569 C835.53323,3878.94829 835.539871,3879.02005 835.539871,3879.07225 C835.539871,3879.39413 835.410583,3879.67054 835.151871,3879.9009 C834.892956,3880.13145 834.585186,3880.2467 834.228492,3880.2467 C833.666549,3880.2467 833.095595,3879.97921 832.515696,3879.44415 C831.935662,3878.9091 831.645915,3878.38515 831.645915,3877.87171 C831.645915,3877.77602 831.657096,3877.69118 831.679389,3877.61717 C831.701479,3877.54342 831.739561,3877.48018 831.793092,3877.42798 L831.793092,3877.42798 Z M841.374231,3872.10376 C842.177131,3872.25184 842.743614,3872.58224 843.073677,3873.09556 C843.403538,3873.609 843.568807,3874.41809 843.568807,3875.52275 C843.568807,3877.7151 842.893027,3879.50937 841.541465,3880.90572 C840.189971,3882.30186 838.461523,3883 836.356188,3883 C835.526522,3883 834.721453,3882.85423 833.940846,3882.56281 C833.160036,3882.2714 832.48893,3881.86467 831.92692,3881.34271 C831.284614,3880.76867 830.802833,3880.16185 830.481713,3879.52246 C830.160526,3878.883 830,3878.22854 830,3877.55849 C830,3876.81033 830.165066,3876.23199 830.495062,3875.82289 C830.824991,3875.41398 831.346818,3875.13578 832.060748,3874.98776 C831.92692,3874.6832 831.828599,3874.42661 831.766327,3874.2178 C831.703919,3874.00898 831.672681,3873.84808 831.672681,3873.73501 C831.672681,3873.34349 831.884502,3872.94344 832.308279,3872.5344 C832.731854,3872.1255 833.131237,3871.92104 833.505956,3871.92104 C833.666549,3871.92104 833.835816,3871.94933 834.014434,3872.00589 C834.192849,3872.06265 834.397826,3872.15596 834.629976,3872.28647 C833.942879,3870.3899 833.44348,3868.92622 833.131237,3867.8953 C832.818791,3866.86438 832.662941,3866.15316 832.662941,3865.7617 C832.662941,3865.22235 832.805442,3864.79402 833.091123,3864.47631 C833.3766,3864.15872 833.764667,3864 834.255257,3864 C835.093664,3864 836.15548,3865.82692 837.440093,3869.48083 C837.662959,3870.10721 837.832633,3870.58999 837.948572,3870.92931 C838.04669,3870.65984 838.184787,3870.27683 838.363405,3869.78097 C839.648019,3866.16188 840.754082,3864.35234 841.682001,3864.35234 C842.137017,3864.35234 842.500351,3864.50241 842.772615,3864.80255 C843.044676,3865.10268 843.18074,3865.50524 843.18074,3866.00963 C843.18074,3866.39257 843.031327,3867.09276 842.732433,3868.11059 C842.433404,3869.12849 841.980828,3870.45948 841.374231,3872.10376 L841.374231,3872.10376 Z" id="angel"></path>
        </g>
    </g>
</svg>