<?xml version="1.0" encoding="UTF-8"?>
<svg width="255px" height="74px" viewBox="0 0 255 74" version="1.1" xmlns="http://www.w3.org/2000/svg" xmlns:xlink="http://www.w3.org/1999/xlink">
    <!-- Generator: sketchtool 39 (31667) - http://www.bohemiancoding.com/sketch -->
    <title>E230AC5B-2C8B-4C0D-A71D-A91A2294D84B</title>
    <desc>Created with sketchtool.</desc>
    <defs>
        <path d="M16.9204482,44.5732086 C24.54953,55.5113939 39.5577336,58.1759574 50.4422092,50.5246777 C59.4527258,44.190704 62.8125832,32.7728177 59.3742999,22.8235487 C58.6592241,20.754353 57.1805866,22.6300924 55.8671024,20.7468863 L16.9204482,44.5732086 L16.9204482,44.5732086 Z" id="path-1"></path>
        <mask id="mask-2" maskContentUnits="userSpaceOnUse" maskUnits="objectBoundingBox" x="0" y="0" width="43.7772603" height="34.1443737" fill="white">
            <use xlink:href="#path-1"></use>
        </mask>
        <path d="M16.9204482,44.5732086 C24.54953,55.5113939 39.5577336,58.1759574 50.4422092,50.5246777 C59.4527258,44.190704 62.8125832,32.7728177 59.3742999,22.8235487 C58.6592241,20.754353 57.1805866,22.6300924 55.8671024,20.7468863 L16.9204482,44.5732086 L16.9204482,44.5732086 Z" id="path-3"></path>
        <mask id="mask-4" maskContentUnits="userSpaceOnUse" maskUnits="objectBoundingBox" x="0" y="0" width="43.7772603" height="34.1443737" fill="white">
            <use xlink:href="#path-3"></use>
        </mask>
    </defs>
    <g id="Page-1" stroke="none" stroke-width="1" fill="none" fill-rule="evenodd">
        <g id="1600-NEW" transform="translate(-170.000000, -60.000000)">
            <g id="logo_name" transform="translate(170.000000, 60.000000)">
                <text id="vanido" font-family="Ikaros" font-size="56" font-weight="normal" fill="#353535">
                    <tspan x="101.412" y="55">vanido</tspan>
                </text>
                <g id="landing_logo">
                    <rect id="Rectangle-3054" fill="#FFD43F" x="0" y="0" width="74" height="74" rx="8"></rect>
                    <use id="Mask-Copy" stroke="#353535" mask="url(#mask-2)" stroke-width="1.3895842" fill="#ECECEC" xlink:href="#path-1"></use>
                    <path d="M52.4338533,48.6463641 C57.2663913,42.8326824 59.2072979,34.9152059 57.327014,27.3286838" id="Mask-Copy-3" stroke="#D2D2D2" stroke-width="0.705599975"></path>
                    <path d="M49.9843999,50.3866928 C53.993447,43.8255801 54.8189539,35.453495 51.4625696,27.8853695" id="Mask-Copy-4" stroke="#D2D2D2" stroke-width="0.705599975"></path>
                    <path d="M46.3973014,52.2646257 C49.8824601,45.8724785 50.4593621,37.9744352 47.2771633,30.7990709" id="Mask-Copy-5" stroke="#D2D2D2" stroke-width="0.705599975"></path>
                    <path d="M43.907674,53.32311 C45.8551223,47.7162222 45.7616195,41.3794959 43.1647819,35.5240305" id="Mask-Copy-6" stroke="#D2D2D2" stroke-width="0.705599975"></path>
                    <path d="M34.9006502,54.8259128 C27.933251,54.3114748 21.242623,50.7701207 16.9204482,44.5732086 L54.2850476,21.714737 C54.9158727,21.7397317 55.4715828,21.7787866 55.8326332,22.8235487 C59.2709165,32.7728177 55.9110591,44.190704 46.9005426,50.5246777 C43.2233875,53.1095466 39.0755815,54.5170437 34.9006502,54.8259128 L34.9006502,54.8259128 Z" id="Combined-Shape" fill-opacity="0.400000006" fill="#FFFFFF"></path>
                    <path d="M31.0822065,34.6181517 L53.2597343,19.0283821 C54.7496078,17.9810703 56.5605542,18.1194834 57.7914883,19.2248241 C59.284276,21.9851425 60.1896919,24.9381071 60.5359925,27.9223625 L60.5359925,27.9223625 C60.1988669,28.689982 59.669214,29.3712085 58.9723687,29.8610583 L26.5413716,52.6585484 C22.9496846,50.994461 19.7200183,48.4198146 17.2255365,45.0008607 L17.1598917,45.0500479 C15.1637939,42.1881456 13.658955,38.8387145 12.9666395,35.4869026 C12.4165685,32.8237606 12.4300648,30.1799935 12.7558938,27.6288917 C13.0965769,29.0307074 13.6977773,30.3939271 14.5719721,31.6473026 C18.3336453,37.0405963 25.7278884,38.3609784 31.0822065,34.6181517 L31.0822065,34.6181517 Z" id="Combined-Shape" fill="#2E2E2E"></path>
                    <path d="M20.9658169,49.0631599 C24.6979274,52.2826425 29.2676511,54.2154839 34.0082701,54.7433147 L40.3684472,50.2724063 C42.2632398,48.9404553 42.9155156,46.2034231 41.8289534,44.1565379 L40.0236175,40.7556137 C38.9374031,38.7093835 36.5210834,38.1285317 34.627393,39.4597079 L20.9658169,49.0631599 L20.9658169,49.0631599 Z" id="Combined-Shape" fill="#2E2E2E"></path>
                    <path d="M59.9602673,29.0279109 L40.8807921,42.7596725 C40.4805805,43.0410026 40.0351277,43.5693646 38.8929082,43.1246288 C37.7506886,42.6798929 38.1582489,41.9900267 38.5572387,41.7095554" id="Rectangle-73-Copy-2" stroke="#F4F4F4" stroke-width="0.705599975" stroke-linecap="round" stroke-linejoin="round"></path>
                    <use id="Mask-Copy-8" stroke="#2E2E2E" mask="url(#mask-4)" stroke-width="1.3895842" xlink:href="#path-3"></use>
                    <path d="M28.3741939,60.9950004 C27.1013249,59.1700263 26.8553643,56.0672451 27.8260572,54.0622006 L30.1833599,49.1930016 L33.4754999,53.9131027 C34.748369,55.7380768 34.9943295,58.840858 34.0236367,60.8459025 L31.6663339,65.7151015 L28.3741939,60.9950004 L28.3741939,60.9950004 Z" id="Rectangle-73" fill="#2E2E2E"></path>
                    <path d="M40.3726711,40.1688348 C40.7641861,39.8936179 41.1937725,39.7590552 41.1937725,39.7590552 C40.9065412,39.3472378 40.3411544,39.2471538 39.9309456,39.5355115 C39.5207369,39.8238692 39.4210439,40.3914732 39.7082752,40.8032906 C39.7082752,40.8032906 39.981156,40.4440516 40.3726711,40.1688348 L40.3726711,40.1688348 Z" id="Oval-48" stroke="#F4F4F4" stroke-width="0.5" stroke-linecap="round" stroke-linejoin="round" fill="#F4F4F4"></path>
                    <path d="M16.0880341,27.0527793 C15.8186436,28.6876638 14.2853709,29.7657919 12.6625768,29.4606961 L12.6625768,29.4606961 C11.0401395,29.1556673 9.94328054,27.5830435 10.2127526,25.9476642 L10.7223589,22.8549514 C13.3243064,23.3441345 13.2896782,25.2704827 13.2896782,25.2704827 C13.2896782,25.2704827 13.9957767,23.4703753 16.5977242,23.9595584 L16.0880341,27.0527793 L16.0880341,27.0527793 L16.0880341,27.0527793 Z" id="Rectangle-75" fill="#353535"></path>
                </g>
            </g>
        </g>
    </g>
</svg>