<?xml version="1.0" encoding="UTF-8"?>
<svg width="13px" height="10px" viewBox="0 0 13 10" version="1.1" xmlns="http://www.w3.org/2000/svg" xmlns:xlink="http://www.w3.org/1999/xlink">
    <!-- Generator: Sketch 3.8.3 (29802) - http://www.bohemiancoding.com/sketch -->
    <title>Mail svg</title>
    <desc>Created with Sketch.</desc>
    <defs></defs>
    <g id="Page-1" stroke="none" stroke-width="1" fill="none" fill-rule="evenodd">
        <g id="Mail-svg" fill="#353535">
            <path d="M11.83,0 L1.17,0 C0.524642857,0 0,0.532727273 0,1.18727273 L0,8.81181818 C0,9.46727273 0.524642857,10 1.17,10 L11.83,10 C12.4753571,10 13,9.46727273 13,8.81181818 L13,1.18727273 C13,0.532727273 12.4753571,0 11.83,0 L11.83,0 Z M1.11614286,1.87272727 L6.20007143,6.28818182 C6.2075,6.29454545 6.214,6.3 6.21957143,6.30363636 L6.24185714,6.32090909 C6.2465,6.32363636 6.25207143,6.32818182 6.26042857,6.33272727 L6.26507143,6.33818182 L6.36814286,6.39 L6.3765,6.39 C6.38392857,6.39272727 6.39135714,6.39545455 6.39971429,6.39727273 L6.40342857,6.39818182 C6.40435714,6.39909091 6.40621429,6.39909091 6.40714286,6.39909091 C6.41735714,6.40272727 6.43128571,6.40636364 6.44892857,6.40909091 L6.44985714,6.40909091 C6.45821429,6.41181818 6.46564286,6.41272727 6.47121429,6.41363636 L6.48978571,6.42 L6.52135714,6.42 L6.52414286,6.42 C6.53342857,6.42090909 6.54735714,6.42272727 6.56407143,6.42272727 C6.57521429,6.42272727 6.59471429,6.42272727 6.61607143,6.42 C6.63557143,6.41909091 6.65414286,6.41545455 6.669,6.41181818 L6.6755,6.41181818 L6.69964286,6.40363636 L6.70335714,6.40363636 L6.71357143,6.40272727 L6.74514286,6.39181818 C6.74607143,6.39181818 6.74792857,6.39090909 6.75071429,6.39 L6.76,6.39 L6.86307143,6.33818182 L6.8705,6.33 C6.87514286,6.32727273 6.87978571,6.32454545 6.88535714,6.32090909 L6.90114286,6.31 L6.90392857,6.30636364 C6.90485714,6.30545455 6.90578571,6.30545455 6.90671429,6.30454545 C6.91321429,6.3 6.91971429,6.29545455 6.92714286,6.28818182 L11.8838571,1.98909091 L11.8838571,8.81181818 C11.8838571,8.84090909 11.8587857,8.86636364 11.83,8.86636364 L1.17,8.86636364 C1.14121429,8.86636364 1.11614286,8.84090909 1.11614286,8.81181818 L1.11614286,1.87272727 L1.11614286,1.87272727 Z M6.56685714,5.11454545 L1.98342857,1.13363636 L11.1493571,1.13363636 L6.56685714,5.11454545 L6.56685714,5.11454545 Z" id="Shape-Copy"></path>
        </g>
    </g>
</svg>