<svg xmlns="http://www.w3.org/2000/svg" xmlns:xlink="http://www.w3.org/1999/xlink" width="1175" height="269" viewBox="0 0 1175 269">
    <defs>
        <path id="a" d="M776 221h56v36h-56z"/>
        <path id="b" d="M876 216h89v53h-89z"/>
        <path id="c" d="M881 222h23v9h-23z"/>
        <path id="d" d="M909 222h23v9h-23z"/>
        <path id="e" d="M937 222h23v9h-23z"/>
        <path id="f" d="M842 220h26v49h-26z"/>
        <path id="g" d="M195 246c0-9.389 7.621-17 16.997-17H245v30.998a2.997 2.997 0 0 1-2.997 3.002h-30.006C202.61 263 195 255.39 195 246z"/>
        <path id="h" d="M120 169h76l-3.303 15h-69.394z"/>
        <path id="i" d="M125 91h66l-3 15h-60z"/>
        <path id="j" d="M130 40h56l-2.697 15h-50.606z"/>
        <path id="k" d="M136 0h43l-2.303 15h-38.394z"/>
        <path id="l" d="M0 155h119v10H0z"/>
        <path id="m" d="M10.604 147h98.97v10h-98.97z"/>
        <path id="n" d="M16.495 139h87.188v10H16.495z"/>
        <path id="o" d="M28 126h63.624v15H28z"/>
    </defs>
    <g fill="none" fill-rule="evenodd" transform="translate(1)">
        <path stroke="#F2F2F2" stroke-linecap="square" stroke-width="2" d="M.5 268h1172.096"/>
        <path stroke="#F2F2F2" stroke-width="2" d="M974.918 268v-54.691l-134.322-22.286-77.917 22.193V268h212.24z"/>
        <path stroke="#F2F2F2" stroke-width="2" d="M974.918 268v-24.54H762.68V268h212.24z"/>
        <use fill="#FAFAFA" xlink:href="#a"/>
        <path stroke="#F2F2F2" stroke-width="2" d="M777 222h54v34h-54z"/>
        <use fill="#FAFAFA" xlink:href="#b"/>
        <path stroke="#F2F2F2" stroke-width="2" d="M877 217h87v51h-87z"/>
        <use fill="#FAFAFA" xlink:href="#c"/>
        <path stroke="#F2F2F2" stroke-width="2" d="M882 223h21v7h-21z"/>
        <use fill="#FAFAFA" xlink:href="#d"/>
        <path stroke="#F2F2F2" stroke-width="2" d="M910 223h21v7h-21z"/>
        <use fill="#FAFAFA" xlink:href="#e"/>
        <path stroke="#F2F2F2" stroke-width="2" d="M938 223h21v7h-21z"/>
        <use fill="#FAFAFA" xlink:href="#f"/>
        <path stroke="#F2F2F2" stroke-width="2" d="M843 221h24v47h-24z"/>
        <circle cx="719" cy="261" r="7" stroke="#F2F2F2" stroke-linecap="round" stroke-linejoin="round" stroke-width="2"/>
        <circle cx="751" cy="261" r="7" stroke="#F2F2F2" stroke-linecap="round" stroke-linejoin="round" stroke-width="2"/>
        <path stroke="#F2F2F2" stroke-linecap="round" stroke-linejoin="round" stroke-width="2" d="M719.5 260.5l8.416-13.15h15.904l7.68 13.15h-15.366l-11.94-4.5"/>
        <path stroke="#F2F2F2" stroke-linecap="round" stroke-linejoin="round" stroke-width="2" d="M719.5 260.5l8.416-13.15 3.104-5.35h5.12M739.98 246h5.12l-6.4 14"/>
        <path stroke="#F2F2F2" stroke-width="2" d="M759.347 214.135l81.131-23.158 136.44 22.307v-4.514l-136.32-22.746-81.251 23.65v4.461z"/>
        <g transform="translate(196)">
            <path stroke="#F2F2F2" stroke-width="2" d="M246.965 259.797l-.049.095.063.334c.186.985-.498 1.774-1.55 1.774h-15.266l.59-3.894c.175-1.145 1.295-2.106 2.457-2.106h10.1a14.496 14.496 0 0 1 1.64 1.085c.645.5 1.135.994 1.402 1.434.326.537.515.944.597 1.225l.016.053z"/>
            <g transform="matrix(-1 0 0 1 440 0)">
                <use fill="#FAFAFA" xlink:href="#g"/>
                <path stroke="#F2F2F2" stroke-width="2" d="M244 230h-32.003C203.17 230 196 237.167 196 246c0 8.838 7.162 16 15.997 16h30.006a1.997 1.997 0 0 0 1.997-2.002V230z"/>
            </g>
            <path stroke="#F2F2F2" stroke-linecap="square" stroke-width="2" d="M230 230.5v30"/>
            <circle cx="242" cy="265" r="3" stroke="#F2F2F2" stroke-linecap="round" stroke-linejoin="round" stroke-width="2" transform="matrix(-1 0 0 1 484 0)"/>
            <circle cx="203" cy="265" r="3" stroke="#F2F2F2" stroke-linecap="round" stroke-linejoin="round" stroke-width="2" transform="matrix(-1 0 0 1 406 0)"/>
            <path stroke="#F2F2F2" stroke-width="2" d="M226 257h-7v-8h-3v-12.993c0-.006.001-.007.002-.007h9.996c-.003 0 .002.005.002.003v20.994a.01.01 0 0 0 0 .003z"/>
            <path stroke="#F2F2F2" stroke-width="2" d="M216 257c.001.003.005 0 .002 0H216zm0 0h-7.002c.002 0 .002 0 .002-.003v-20.994a.01.01 0 0 0 0-.003h7.002c-.002 0-.002 0-.002.003v20.994a.01.01 0 0 0 0 .003z"/>
            <path stroke="#F2F2F2" stroke-linecap="square" stroke-width="2" d="M208.5 249h-12M243 249h-12"/>
            <path stroke="#F2F2F2" stroke-width="2" d="M236 226v2c0 1.102-.898 2-2.004 2H196v-4h40zM141.946 1l-14.889 267h61.882L173.058 1h-31.112z"/>
            <use fill="#FAFAFA" xlink:href="#h"/>
            <path stroke="#F2F2F2" stroke-width="2" d="M121.244 170l2.863 13h67.786l2.863-13h-73.512zM154 42h8V27.995a4.001 4.001 0 0 0-8 0V42z"/>
            <use fill="#FAFAFA" xlink:href="#i"/>
            <path stroke="#F2F2F2" stroke-width="2" d="M126.22 92l2.6 13h58.36l2.6-13h-63.56z"/>
            <use fill="#FAFAFA" xlink:href="#j"/>
            <path stroke="#F2F2F2" stroke-width="2" d="M131.196 41l2.337 13h48.934l2.337-13h-53.608z"/>
            <use fill="#FAFAFA" xlink:href="#k"/>
            <path stroke="#F2F2F2" stroke-width="2" d="M137.165 1l1.996 13h36.678l1.996-13h-40.67z"/>
            <path stroke="#F2F2F2" stroke-linecap="round" stroke-linejoin="round" stroke-width="2" d="M139.093 191.145L135.5 267.5M143.52 114.312l-2.606 55.394M150.863 128.288l-1.95 41.418M157.048 145.606l-1.134 24.1M145.287 63.309L144 90.649M146.854 22.2L146 40.34M151.747 74.771L151 90.65M148.465 204.493L145.5 267.5M155.615 222.552L153.5 267.5"/>
            <path stroke="#F2F2F2" stroke-width="2" d="M6.891 164v104h106V164h-106z"/>
            <path stroke="#F2F2F2" stroke-width="2" d="M44.87 268H76.1v-61.174c0-8.74-6.996-15.826-15.616-15.826-8.622 0-15.615 7.082-15.615 15.826V268z"/>
            <use fill="#FAFAFA" xlink:href="#l"/>
            <path stroke="#F2F2F2" stroke-width="2" d="M1 156h117v8H1z"/>
            <ellipse cx="60.089" cy="135" stroke="#F2F2F2" stroke-width="2" rx="21.208" ry="18"/>
            <use fill="#FAFAFA" xlink:href="#m"/>
            <path stroke="#F2F2F2" stroke-width="2" d="M11.604 148h96.97v8h-96.97z"/>
            <use fill="#FAFAFA" xlink:href="#n"/>
            <path stroke="#F2F2F2" stroke-width="2" d="M17.495 140h85.188v8H17.495z"/>
            <use fill="#FAFAFA" xlink:href="#o"/>
            <path stroke="#F2F2F2" stroke-width="2" d="M29 127h61.624v13H29zM83.832 268v-85H36.347v85h47.485z"/>
            <circle cx="21" cy="182" r="8" stroke="#F2F2F2" stroke-width="2"/>
            <path stroke="#F2F2F2" stroke-linecap="square" stroke-width="2" d="M7.5 199h28M7.5 209h28M7.5 229h28M84.5 199h27M84.5 209h27M84.5 229h27"/>
            <circle cx="99" cy="182" r="8" stroke="#F2F2F2" stroke-width="2"/>
            <circle cx="36" cy="134" r="3" stroke="#F2F2F2" stroke-width="2"/>
            <circle cx="85" cy="134" r="3" stroke="#F2F2F2" stroke-width="2"/>
            <path stroke="#F2F2F2" stroke-width="2" d="M42 132h37v4H42z"/>
        </g>
        <path stroke="#F2F2F2" stroke-width="2" d="M920 106c59.667 52 81.667 106 66 162h23.5c4.333-54-14.833-100.667-57.5-140s-53.333-46.667-32-22zM906 92.025c-23.81-1.588-40.476 9.127-50 32.142 19.841-16.666 36.508-27.38 50-32.142zM914 92.025c23.81-1.588 40.476 9.127 50 32.142-19.841-16.666-36.508-27.38-50-32.142zM912.678 90.89c14.088-19.26 33.009-25.14 56.762-17.642-25.521 4.486-44.442 10.367-56.762 17.641zM909.322 90.89c-14.088-19.26-33.009-25.14-56.762-17.642 25.521 4.486 44.442 10.367 56.762 17.641zM910.48 90.982c7.013-21.321 2.645-40.647-13.104-57.978 3.083 20.664 7.45 39.99 13.104 57.978z"/>
    </g>
</svg>
