<?xml version="1.0" encoding="UTF-8"?>
<svg width="17px" height="15px" viewBox="0 0 17 15" version="1.1" xmlns="http://www.w3.org/2000/svg" xmlns:xlink="http://www.w3.org/1999/xlink">
    <!-- Generator: sketchtool 39 (31667) - http://www.bohemiancoding.com/sketch -->
    <title>7C007657-76BB-4382-B6AF-FC6E34289A40</title>
    <desc>Created with sketchtool.</desc>
    <defs></defs>
    <g id="Page-1" stroke="none" stroke-width="1" fill="none" fill-rule="evenodd">
        <g id="1280-Cool-screens" transform="translate(-757.000000, -3866.000000)" fill="#000000">
            <path d="M771.786926,3868.25287 C772.49725,3867.80827 773.04229,3867.10328 773.298085,3866.26347 C772.633018,3866.67617 771.898099,3866.97463 771.113988,3867.13621 C770.488274,3866.43637 769.593975,3866 768.604245,3866 C766.705458,3866 765.166751,3867.61066 765.166751,3869.59698 C765.166751,3869.87897 765.195282,3870.15376 765.254312,3870.4162 C762.397277,3870.26594 759.863922,3868.83539 758.166819,3866.65764 C757.870687,3867.19076 757.701469,3867.80827 757.701469,3868.46694 C757.701469,3869.7143 758.30849,3870.81552 759.231321,3871.46185 C758.667587,3871.44332 758.137305,3871.27968 757.672938,3871.0121 L757.672938,3871.05635 C757.672938,3872.79978 758.857466,3874.25401 760.432574,3874.58335 C760.143329,3874.66774 759.84031,3874.70993 759.525485,3874.70993 C759.304124,3874.70993 759.087682,3874.68832 758.87911,3874.64613 C759.31593,3876.07462 760.586051,3877.11615 762.091307,3877.14394 C760.913666,3878.10931 759.431038,3878.68359 757.820512,3878.68359 C757.543073,3878.68359 757.268585,3878.66815 757,3878.63419 C758.521981,3879.65411 760.329272,3880.25 762.271347,3880.25 C768.597358,3880.25 772.054527,3874.7686 772.054527,3870.01482 C772.054527,3869.85839 772.05256,3869.70298 772.045673,3869.54964 C772.717627,3869.04225 773.30202,3868.40828 773.761468,3867.68682 C773.144608,3867.97293 772.481508,3868.16642 771.786926,3868.25287 Z" id="twitter"></path>
        </g>
    </g>
</svg>